<svg width="61" height="20" viewBox="0 0 61 20" fill="none" xmlns="http://www.w3.org/2000/svg">
<path fill-rule="evenodd" clip-rule="evenodd" d="M0 10C0 9.44772 1.13794 9 2.54167 9H58.4583C59.8621 9 61 9.44772 61 10C61 10.5523 59.8621 11 58.4583 11H2.54167C1.13794 11 0 10.5523 0 10Z" fill="#402F53"/>
<path fill-rule="evenodd" clip-rule="evenodd" d="M51.6695 0.292893C52.0099 -0.0976311 52.5616 -0.0976311 52.9019 0.292893L60.7448 9.29289C61.0851 9.68342 61.0851 10.3166 60.7448 10.7071L52.9019 19.7071C52.5616 20.0976 52.0099 20.0976 51.6695 19.7071C51.3292 19.3166 51.3292 18.6834 51.6695 18.2929L58.8962 10L51.6695 1.70711C51.3292 1.31658 51.3292 0.683417 51.6695 0.292893Z" fill="#402F53"/>
</svg>
