<svg width="18" height="28" viewBox="0 0 18 28" fill="none" xmlns="http://www.w3.org/2000/svg">
<path fill-rule="evenodd" clip-rule="evenodd" d="M16 3C16 2.44772 15.5523 2 15 2L3 2C2.44771 2 2 2.44772 2 3L2 25C2 25.5523 2.44771 26 3 26H15C15.5523 26 16 25.5523 16 25V3ZM15 0C16.6569 0 18 1.34315 18 3V25C18 26.6569 16.6569 28 15 28H3C1.34315 28 0 26.6569 0 25V3C0 1.34315 1.34315 0 3 0L15 0Z" fill="#C97A68"/>
<path d="M9 7C9.82843 7 10.5 6.32843 10.5 5.5C10.5 4.67157 9.82843 4 9 4C8.17157 4 7.5 4.67157 7.5 5.5C7.5 6.32843 8.17157 7 9 7Z" fill="#C97A68"/>
</svg>
