<svg width="191" height="92" viewBox="0 0 191 92" fill="none" xmlns="http://www.w3.org/2000/svg">
<path d="M72.4727 34.8633C73.2227 35.0508 73.9375 35.1914 74.6172 35.2852C75.2969 35.3789 75.8945 35.4492 76.4102 35.4961C77.0195 35.5664 77.582 35.5898 78.0977 35.5664C78.7539 35.5664 79.5742 35.5078 80.5586 35.3906C81.5664 35.2734 82.5977 35.168 83.6523 35.0742C84.707 34.957 85.7148 34.8867 86.6758 34.8633C87.6602 34.8164 88.457 34.875 89.0664 35.0391C89.6758 35.1797 90.2969 35.4023 90.9297 35.707C91.5859 35.9883 92.1836 36.3516 92.7227 36.7969C93.2617 37.2188 93.707 37.7227 94.0586 38.3086C94.4102 38.8711 94.6094 39.5156 94.6562 40.2422C94.6328 41.1562 94.4219 42.0117 94.0234 42.8086C93.6953 43.4883 93.1445 44.1914 92.3711 44.918C91.5977 45.6211 90.4844 46.1602 89.0312 46.5352C89.7578 46.6289 90.3789 46.793 90.8945 47.0273C91.4336 47.2383 91.8906 47.4961 92.2656 47.8008C92.6641 48.082 92.9805 48.3984 93.2148 48.75C93.4727 49.1016 93.6719 49.4531 93.8125 49.8047C94.1641 50.625 94.3281 51.5391 94.3047 52.5469C94.1641 53.8594 93.8945 54.9023 93.4961 55.6758C93.1211 56.4492 92.6875 57.0469 92.1953 57.4688C91.7031 57.8906 91.1992 58.1836 90.6836 58.3477C90.168 58.5117 89.6992 58.6406 89.2773 58.7344C88.8555 58.8281 88.3398 58.875 87.7305 58.875C87.1211 58.875 86.4648 58.8633 85.7617 58.8398C85.082 58.793 84.3789 58.7578 83.6523 58.7344C82.9258 58.6875 82.2344 58.6875 81.5781 58.7344C81.0391 58.7812 80.3828 58.8281 79.6094 58.875C78.9531 58.9219 78.1328 58.9805 77.1484 59.0508C76.1641 59.0977 75.0156 59.1562 73.7031 59.2266C73.9609 59.0391 74.1719 58.8281 74.3359 58.5938C74.5234 58.3359 74.6758 58.1133 74.793 57.9258C74.9102 57.6914 75.0156 57.4688 75.1094 57.2578C75.1797 57.0703 75.2383 56.5547 75.2852 55.7109C75.332 54.8672 75.3672 53.8594 75.3906 52.6875C75.4141 51.4922 75.4258 50.2148 75.4258 48.8555C75.4492 47.4727 75.4375 46.1484 75.3906 44.8828C75.3672 43.5938 75.3203 42.457 75.25 41.4727C75.2031 40.4648 75.1328 39.7383 75.0391 39.293C74.8984 38.8008 74.7109 38.2969 74.4766 37.7812C74.2891 37.3359 74.0195 36.8555 73.668 36.3398C73.3398 35.8242 72.9414 35.332 72.4727 34.8633ZM79.8906 38.4492C79.8906 38.543 79.9023 38.8594 79.9258 39.3984C79.9492 39.8672 79.9727 40.5938 79.9961 41.5781C80.043 42.5391 80.1016 43.9102 80.1719 45.6914C80.7578 45.9492 81.332 46.0898 81.8945 46.1133C82.457 46.1133 82.9609 46.0898 83.4062 46.043C83.9219 45.9727 84.4141 45.8555 84.8828 45.6914C85.5156 45.4336 86.0078 45.0117 86.3594 44.4258C86.7344 43.8398 86.9805 43.2305 87.0977 42.5977C87.2383 41.9414 87.2734 41.332 87.2031 40.7695C87.1328 40.1836 86.9805 39.7617 86.7461 39.5039C86.3008 39.1055 85.75 38.7773 85.0938 38.5195C84.5312 38.3086 83.8164 38.168 82.9492 38.0977C82.1055 38.0039 81.0859 38.1211 79.8906 38.4492ZM79.7148 55.1133C80.582 55.5586 81.3438 55.8516 82 55.9922C82.6562 56.1328 83.207 56.2031 83.6523 56.2031C84.168 56.2031 84.6133 56.1328 84.9883 55.9922C85.4336 55.7812 85.8672 55.5 86.2891 55.1484C86.7344 54.7734 87.0625 54.3398 87.2734 53.8477C87.5078 53.332 87.6016 52.7695 87.5547 52.1602C87.5078 51.5273 87.2383 50.8359 86.7461 50.0859C86.3008 49.5469 85.7617 49.125 85.1289 48.8203C84.5664 48.5625 83.8516 48.3984 82.9844 48.3281C82.1406 48.2578 81.0977 48.457 79.8555 48.9258L79.7148 55.1133ZM98.9102 45.7617C99.0273 45.6211 99.0977 45.3633 99.1211 44.9883C99.168 44.5898 99.2617 44.1445 99.4023 43.6523C99.5664 43.1602 99.8359 42.6445 100.211 42.1055C100.586 41.5664 101.195 41.0625 102.039 40.5938C102.859 40.125 103.656 39.8438 104.43 39.75C105.203 39.6562 105.941 39.6914 106.645 39.8555C107.348 40.0195 108.004 40.2773 108.613 40.6289C109.246 40.9805 109.82 41.3672 110.336 41.7891C110.688 42.0703 110.969 42.4805 111.18 43.0195C111.391 43.5352 111.555 44.1211 111.672 44.7773C111.789 45.4336 111.871 46.125 111.918 46.8516C111.988 47.5547 112.035 48.2461 112.059 48.9258C112.082 49.582 112.094 50.1914 112.094 50.7539C112.117 51.293 112.164 51.7383 112.234 52.0898C112.328 52.6055 112.492 53.0508 112.727 53.4258C112.961 53.7773 113.219 54.082 113.5 54.3398C113.781 54.5742 114.062 54.7617 114.344 54.9023C114.625 55.043 114.871 55.1484 115.082 55.2188C115.223 55.2891 115.352 55.3359 115.469 55.3594C115.703 55.4531 115.867 55.4531 115.961 55.3594C115.82 55.6875 115.691 55.9688 115.574 56.2031C115.457 56.4375 115.363 56.6367 115.293 56.8008C115.199 56.9883 115.117 57.1406 115.047 57.2578C114.977 57.3984 114.895 57.5273 114.801 57.6445C114.73 57.7617 114.637 57.8906 114.52 58.0312C114.402 58.1719 114.285 58.3242 114.168 58.4883C113.863 58.3711 113.57 58.2305 113.289 58.0664C113.031 57.9023 112.797 57.75 112.586 57.6094C112.328 57.4453 112.094 57.2812 111.883 57.1172C111.672 56.9531 111.473 56.7656 111.285 56.5547C111.121 56.3672 110.945 56.168 110.758 55.957C110.594 55.7461 110.453 55.5117 110.336 55.2539C110.195 55.5586 109.855 55.9922 109.316 56.5547C108.801 57.1172 108.121 57.6328 107.277 58.1016C106.434 58.5469 105.449 58.8633 104.324 59.0508C103.223 59.2383 102.004 59.1094 100.668 58.6641C100.082 58.4766 99.5312 58.207 99.0156 57.8555C98.5 57.4805 98.0547 57.0352 97.6797 56.5195C97.3281 56.0039 97.0703 55.418 96.9062 54.7617C96.7656 54.082 96.7773 53.332 96.9414 52.5117C97.1055 51.6914 97.3984 51 97.8203 50.4375C98.2422 49.875 98.7461 49.418 99.332 49.0664C99.918 48.7148 100.574 48.4453 101.301 48.2578C102.027 48.0703 102.777 47.9414 103.551 47.8711C104.16 47.8477 104.77 47.8828 105.379 47.9766C105.895 48.0703 106.434 48.2461 106.996 48.5039C107.559 48.7383 108.039 49.1016 108.438 49.5938C108.414 48.3516 108.367 47.3672 108.297 46.6406C108.25 45.8906 108.203 45.3164 108.156 44.918C108.062 44.4492 107.98 44.1211 107.91 43.9336C107.793 43.7695 107.664 43.582 107.523 43.3711C107.406 43.1602 107.254 42.9727 107.066 42.8086C106.879 42.6211 106.645 42.4688 106.363 42.3516C106.082 42.2344 105.754 42.1875 105.379 42.2109C104.98 42.2344 104.664 42.3398 104.43 42.5273C104.195 42.7148 104.008 42.9375 103.867 43.1953C103.75 43.4297 103.68 43.6875 103.656 43.9688C103.633 44.25 103.645 44.4961 103.691 44.707C103.738 44.8477 103.809 45 103.902 45.1641C103.996 45.3047 104.125 45.457 104.289 45.6211C104.453 45.7852 104.676 45.9258 104.957 46.043C104.418 46.1133 103.938 46.1719 103.516 46.2188C103.094 46.2422 102.73 46.2773 102.426 46.3242C102.074 46.3711 101.77 46.4062 101.512 46.4297C101.254 46.4531 100.949 46.5 100.598 46.5703C100.293 46.6172 99.918 46.6758 99.4727 46.7461C99.0273 46.8164 98.5117 46.9102 97.9258 47.0273C98.0664 46.8633 98.1953 46.7109 98.3125 46.5703C98.4297 46.4062 98.5352 46.2656 98.6289 46.1484C98.7227 46.0078 98.8164 45.8789 98.9102 45.7617ZM104.184 49.9453C103.762 49.9688 103.34 50.0742 102.918 50.2617C102.496 50.4258 102.121 50.6719 101.793 51C101.465 51.3047 101.184 51.668 100.949 52.0898C100.738 52.4883 100.633 52.9336 100.633 53.4258C100.633 53.918 100.75 54.3516 100.984 54.7266C101.242 55.0781 101.57 55.3711 101.969 55.6055C102.391 55.8398 102.836 55.9805 103.305 56.0273C103.797 56.0742 104.277 56.0273 104.746 55.8867C105.191 55.7227 105.613 55.4648 106.012 55.1133C106.41 54.7383 106.75 54.3398 107.031 53.918C107.312 53.4727 107.512 53.0391 107.629 52.6172C107.746 52.1719 107.758 51.8086 107.664 51.5273C107.477 50.918 107.055 50.4961 106.398 50.2617C105.742 50.0039 105.004 49.8984 104.184 49.9453ZM116.699 56.1328C116.863 55.3594 116.98 54.6797 117.051 54.0938C117.145 53.4844 117.215 52.9805 117.262 52.582C117.309 52.1133 117.332 51.7148 117.332 51.3867C117.309 50.9883 117.285 50.5195 117.262 49.9805C117.262 49.418 117.238 48.8672 117.191 48.3281C117.168 47.7656 117.133 47.2734 117.086 46.8516C117.039 46.4062 116.98 46.0898 116.91 45.9023C116.816 45.7148 116.688 45.5156 116.523 45.3047C116.195 44.9062 115.715 44.5195 115.082 44.1445C115.621 44.0273 116.078 43.9336 116.453 43.8633C116.852 43.7695 117.18 43.6875 117.438 43.6172C117.719 43.5234 117.965 43.4414 118.176 43.3711C118.363 43.3008 118.586 43.2305 118.844 43.1602C119.055 43.1133 119.312 43.0547 119.617 42.9844C119.922 42.9141 120.273 42.832 120.672 42.7383L120.566 45.9375C121.316 45.0469 122.078 44.3789 122.852 43.9336C123.625 43.4883 124.352 43.1719 125.031 42.9844C125.805 42.75 126.566 42.6328 127.316 42.6328C128.254 42.6797 129.121 42.832 129.918 43.0898C130.738 43.3477 131.441 43.6523 132.027 44.0039C132.637 44.332 133.129 44.6836 133.504 45.0586C133.879 45.4336 134.102 45.7617 134.172 46.043C134.453 46.957 134.523 47.8008 134.383 48.5742C134.242 49.3242 134.055 50.0625 133.82 50.7891C133.609 51.4922 133.422 52.1953 133.258 52.8984C133.117 53.6016 133.176 54.3633 133.434 55.1836C133.527 55.3945 133.621 55.6055 133.715 55.8164C133.809 56.0039 133.926 56.1914 134.066 56.3789C134.207 56.5664 134.371 56.7188 134.559 56.8359C134.301 56.8125 134.043 56.8008 133.785 56.8008C133.527 56.7773 133.293 56.7539 133.082 56.7305C132.824 56.707 132.59 56.6836 132.379 56.6602C132.145 56.6367 131.828 56.625 131.43 56.625C130.75 56.625 129.695 56.6602 128.266 56.7305C128.477 56.2383 128.641 55.8281 128.758 55.5C128.898 55.1484 129.016 54.8672 129.109 54.6562C129.203 54.3984 129.273 54.1992 129.32 54.0586C129.602 53.3789 129.766 52.6055 129.812 51.7383C129.883 50.8711 129.824 49.9922 129.637 49.1016C129.566 48.7969 129.449 48.4336 129.285 48.0117C129.121 47.5898 128.898 47.1797 128.617 46.7812C128.359 46.3828 128.043 46.043 127.668 45.7617C127.316 45.4805 126.906 45.3164 126.438 45.2695C125.969 45.2227 125.441 45.3398 124.855 45.6211C124.293 45.9023 123.684 46.418 123.027 47.168C122.535 47.8008 122.148 48.5742 121.867 49.4883C121.609 50.2617 121.434 51.2344 121.34 52.4062C121.246 53.5547 121.387 54.9023 121.762 56.4492C121.434 56.4023 121.129 56.3789 120.848 56.3789C120.566 56.3555 120.332 56.332 120.145 56.3086C119.91 56.2852 119.699 56.2617 119.512 56.2383C119.301 56.2383 119.066 56.2266 118.809 56.2031C118.574 56.2031 118.281 56.2031 117.93 56.2031C117.578 56.1797 117.168 56.1562 116.699 56.1328ZM139.973 36.2344C140.465 35.9297 140.957 35.8477 141.449 35.9883C141.965 36.1055 142.352 36.3633 142.609 36.7617C142.891 37.1367 142.996 37.582 142.926 38.0977C142.855 38.6133 142.516 39.0938 141.906 39.5391C141.32 39.9609 140.77 40.1016 140.254 39.9609C139.738 39.8203 139.352 39.5391 139.094 39.1172C138.859 38.6953 138.789 38.2148 138.883 37.6758C138.977 37.1133 139.34 36.6328 139.973 36.2344ZM138.496 44.918C138.402 44.6367 138.297 44.3438 138.18 44.0391C138.062 43.7812 137.91 43.5 137.723 43.1953C137.559 42.8906 137.336 42.5859 137.055 42.2812C138.133 42.5156 138.977 42.6445 139.586 42.668C139.961 42.7148 140.301 42.7266 140.605 42.7031C140.91 42.7266 141.262 42.7148 141.66 42.668C141.988 42.6445 142.398 42.6094 142.891 42.5625C143.383 42.4922 143.934 42.3984 144.543 42.2812C144.262 42.4688 144.004 42.6797 143.77 42.9141C143.559 43.1484 143.383 43.3711 143.242 43.582C143.055 43.8398 142.902 44.0977 142.785 44.3555C142.668 44.5898 142.574 45.1406 142.504 46.0078C142.457 46.875 142.41 47.918 142.363 49.1367C142.34 50.3555 142.305 51.6797 142.258 53.1094C142.234 54.5156 142.199 55.875 142.152 57.1875C142.105 58.4766 142.035 59.6367 141.941 60.668C141.848 61.7227 141.73 62.4844 141.59 62.9531C141.379 63.6797 141.133 64.3945 140.852 65.0977C140.594 65.8242 140.242 66.457 139.797 66.9961C139.375 67.5352 138.824 67.9453 138.145 68.2266C137.488 68.5078 136.645 68.5781 135.613 68.4375C134.582 68.2734 133.75 67.9102 133.117 67.3477C132.461 66.8086 131.934 66.2227 131.535 65.5898C131.137 64.957 130.832 64.3477 130.621 63.7617C130.41 63.1992 130.211 62.8242 130.023 62.6367C129.859 62.4961 129.684 62.3438 129.496 62.1797C129.309 62.0391 129.109 61.875 128.898 61.6875C128.664 61.5 128.395 61.3125 128.09 61.125C128.652 61.0781 129.145 61.043 129.566 61.0195C129.988 60.9961 130.328 60.9844 130.586 60.9844H131.395C131.652 61.0078 131.98 61.0195 132.379 61.0195C132.707 61.0195 133.141 61.0195 133.68 61.0195C134.195 61.0195 134.828 60.9961 135.578 60.9492C135.32 61.0898 135.109 61.2188 134.945 61.3359C134.758 61.4766 134.605 61.5938 134.488 61.6875C134.371 61.8047 134.277 61.9102 134.207 62.0039C134.137 62.1211 134.09 62.4141 134.066 62.8828C134.043 63.375 134.078 63.8789 134.172 64.3945C134.266 64.9336 134.43 65.4023 134.664 65.8008C134.898 66.1992 135.238 66.3867 135.684 66.3633C136.129 66.3398 136.516 66.1172 136.844 65.6953C137.172 65.2969 137.453 64.6523 137.688 63.7617C137.945 62.8945 138.145 61.7461 138.285 60.3164C138.449 58.8867 138.566 57.1289 138.637 55.043C138.707 52.4648 138.754 50.3906 138.777 48.8203C138.801 47.25 138.707 45.9492 138.496 44.918ZM154.668 44.25C155.277 44.25 155.91 44.3672 156.566 44.6016C157.223 44.8125 157.855 45.0938 158.465 45.4453C159.074 45.7734 159.625 46.1367 160.117 46.5352C160.633 46.9102 161.055 47.2734 161.383 47.625C161.969 48.2578 162.367 49.1133 162.578 50.1914C162.812 51.2461 162.859 52.3359 162.719 53.4609C162.578 54.5625 162.25 55.6055 161.734 56.5898C161.219 57.5742 160.504 58.3008 159.59 58.7695C158.934 59.0977 158.289 59.3555 157.656 59.543C157.023 59.7305 156.414 59.8711 155.828 59.9648C155.242 60.0586 154.691 60.1055 154.176 60.1055C153.66 60.1055 153.215 60.0938 152.84 60.0703C152.137 60.0234 151.398 59.7773 150.625 59.332C149.875 58.8867 149.16 58.3359 148.48 57.6797C147.824 57.0234 147.262 56.3086 146.793 55.5352C146.324 54.7383 146.043 53.9883 145.949 53.2852C145.809 52.3242 145.785 51.3164 145.879 50.2617C145.973 49.207 146.312 48.2344 146.898 47.3438C147.508 46.4531 148.422 45.7148 149.641 45.1289C150.883 44.543 152.559 44.25 154.668 44.25ZM153.508 57.8906C153.766 57.9375 154.117 57.8789 154.562 57.7148C155.008 57.5273 155.441 57.2344 155.863 56.8359C156.309 56.4375 156.695 55.9336 157.023 55.3242C157.375 54.6914 157.586 53.9297 157.656 53.0391C157.727 52.1719 157.727 51.375 157.656 50.6484C157.609 49.9219 157.504 49.2891 157.34 48.75C157.176 48.1875 156.988 47.7305 156.777 47.3789C156.566 47.0273 156.344 46.7812 156.109 46.6406C155.711 46.4297 155.23 46.2656 154.668 46.1484C154.105 46.0078 153.625 46.0312 153.227 46.2188C153.039 46.3125 152.805 46.5117 152.523 46.8164C152.242 47.1211 151.961 47.5078 151.68 47.9766C151.398 48.4219 151.141 48.9375 150.906 49.5234C150.695 50.1094 150.543 50.7188 150.449 51.3516C150.355 51.9844 150.332 52.6641 150.379 53.3906C150.449 54.1172 150.602 54.8086 150.836 55.4648C151.07 56.0977 151.398 56.6484 151.82 57.1172C152.266 57.5625 152.828 57.8203 153.508 57.8906Z" fill="#C97A68"/>
<path d="M51.0852 18.5594C51.2956 18.5909 51.4562 18.6439 51.6164 18.6328C52.2396 18.5778 52.6639 18.6444 52.9386 19.399C53.3145 20.4454 54.514 20.9127 55.5993 20.6641C56.6171 20.4335 57.3925 19.5088 57.4547 18.4577C57.5167 17.3709 56.8454 16.3858 55.8139 16.0286C54.7753 15.6714 53.5945 16.0449 53.0331 17.026C52.7789 17.4685 52.4944 17.5689 52.0454 17.5416C51.7603 17.5209 51.4684 17.5644 51.1086 17.5831C51.2101 15.855 51.3084 14.2017 51.4027 12.4736C51.7589 12.4656 52.0971 12.4184 52.4216 12.471C52.5428 12.4921 52.6652 12.734 52.7267 12.9013C53.3014 14.4852 55.1819 15.0612 56.5018 14.0246C57.2788 13.4135 57.5773 12.5826 57.355 11.6106C57.1289 10.6208 56.495 9.98466 55.5 9.77699C54.5299 9.57282 53.6192 9.83877 53.1248 10.6808C52.6975 11.4122 52.181 11.4171 51.4857 11.3013C51.505 10.9022 51.5314 10.5032 51.5436 10.1112C51.6014 8.21934 50.2151 6.76575 48.3305 6.75985C46.884 6.7564 45.4376 6.75294 43.9912 6.77087C42.1922 6.79325 40.8209 8.23246 40.8731 10.035C40.886 10.4661 40.9167 10.8935 40.9405 11.3494C40.3564 11.3866 39.8762 11.5267 39.5091 10.8294C39.009 9.88655 37.7496 9.54418 36.7504 9.89941C35.6978 10.2797 35.0511 11.2896 35.1459 12.3973C35.2369 13.4516 36.086 14.365 37.138 14.5512C38.2362 14.7408 39.3092 14.168 39.7528 13.1551C39.9735 12.6511 40.4011 12.4445 41.0357 12.5355L41.3975 17.7147C40.9163 17.6625 40.4851 17.6457 40.0678 17.5506C39.9144 17.5189 39.7674 17.3234 39.6775 17.1704C38.9481 15.9716 37.4319 15.5872 36.2815 16.324C35.1204 17.0715 34.8149 18.6113 35.6224 19.7529C36.1536 20.5068 36.9178 20.8469 37.8329 20.7555C38.7801 20.6605 39.4864 20.1492 39.7917 19.2685C39.9742 18.7408 40.2194 18.6083 40.7149 18.6605C40.9394 18.6849 41.1777 18.5952 41.434 18.5589C41.4792 19.0291 41.5307 19.3496 41.5324 19.6702C41.537 20.5466 41.8331 21.3154 42.481 21.9016C43.3687 22.7116 43.6408 23.6478 43.5902 24.8735C43.384 29.7655 43.3026 34.6679 43.1749 39.5668C43.0499 44.2982 42.9178 49.0297 42.8212 53.7611C42.8129 54.2207 42.6569 54.3636 42.2478 54.4822C32.9739 57.1528 28.1985 67.1509 32.0705 75.9407C34.2552 80.8872 38.0938 83.9378 43.3797 85.1143C43.847 85.2164 44.0188 85.3727 44.0641 85.8642C44.1398 86.7262 44.3663 87.1211 45.3457 87.0509C46.2609 86.9809 47.1908 86.9892 48.1103 87.0367C48.7161 87.0708 48.9639 86.7638 49.1002 86.2683C49.1422 86.1114 49.1769 85.9474 49.1654 85.7872C49.1312 85.3633 49.3121 85.2096 49.7249 85.1231C53.6288 84.2902 56.7818 82.2586 59.1879 79.0818C64.2548 72.3926 62.982 62.6093 56.3817 57.3784C54.6288 55.9934 52.689 54.983 50.5271 54.4185C50.1382 54.3161 50.0517 54.124 50.0393 53.7856C49.9296 50.5011 49.8198 47.2095 49.6994 43.9215C49.4618 37.2707 49.2206 30.6235 48.9686 23.9728C48.9522 23.5453 49.0287 23.196 49.3193 22.8888C49.4327 22.7746 49.5139 22.6283 49.6273 22.514C50.5556 21.5284 51.1268 20.4011 51.0198 19.0048C51.0122 18.9051 51.0473 18.7981 51.0817 18.5629L51.0852 18.5594ZM43.7312 81.4581C38.9632 80.5404 33.9395 75.6688 34.3462 68.9273C34.753 62.2072 40.4163 57.1588 47.0979 57.4803C53.776 57.8054 58.9212 63.4212 58.6858 70.2122C58.571 73.4865 57.2601 76.2616 54.892 78.5191C53.3499 79.9873 51.5487 80.9716 49.4708 81.4899C49.4586 81.1942 49.4539 80.9769 49.4457 80.7632C49.4014 79.7836 48.7027 79.0265 47.7406 78.9862C46.9638 78.9525 46.1871 78.9545 45.4107 78.9921C44.4633 79.0373 43.7687 79.7587 43.7167 80.7136C43.7001 80.9452 43.7298 81.1802 43.7384 81.4652L43.7312 81.4581ZM43.9017 53.9472C44.1624 43.7931 44.4299 33.582 44.6906 23.4136C45.7842 23.4001 46.7888 23.3905 47.854 23.3771C48.2242 33.5901 48.5979 43.7996 48.9641 53.9308L43.9017 53.9472V53.9472ZM49.2739 84.0448C49.2902 83.749 49.3317 83.4995 49.309 83.2502C49.2602 82.7694 49.4946 82.6263 49.925 82.5076C52.5613 81.8062 54.7879 80.429 56.5727 78.3581C62.2494 71.7636 60.237 61.601 52.3901 57.784C47.5004 55.4059 42.754 55.906 38.3888 59.1448C33.1328 63.045 31.6579 70.5836 34.9791 76.2326C36.8986 79.4982 39.7027 81.6073 43.3666 82.5777C43.5414 82.6236 43.7844 82.7797 43.8208 82.9221C43.901 83.2782 43.8781 83.6594 43.8979 84.0406C38.0258 83.1969 31.7796 77.5518 31.83 69.436C31.8786 61.6373 38.208 55.2157 46.1444 54.9818C53.9311 54.7483 60.6501 60.8767 61.1646 68.7025C61.6952 76.8773 55.6812 82.9811 49.2739 84.0448ZM42.536 8.50243C42.9576 8.05603 43.4839 7.86231 44.0931 7.86433C45.4505 7.86444 46.8042 7.85388 48.1616 7.854C49.6686 7.85374 50.5176 8.75292 50.4292 10.253C50.2494 13.3565 50.0233 16.4565 49.9005 19.567C49.8565 20.7 49.0867 21.3326 48.5137 22.1178C48.4465 22.2142 48.2185 22.2219 48.0653 22.2258C47.1783 22.2388 46.2873 22.1698 45.4113 22.2575C44.5247 22.3488 43.8678 22.094 43.4186 21.3363C43.149 20.8774 42.7262 20.4224 42.681 19.938C42.3966 16.6433 42.1906 13.3413 41.9668 10.0358C41.9246 9.44807 42.125 8.93811 42.536 8.50955L42.536 8.50243ZM45.1398 85.8259C45.028 84.1838 44.9017 82.5132 44.8111 80.8355C44.7836 80.3475 45.0992 80.0724 45.6015 80.0675C46.2143 80.0588 46.8306 80.0537 47.447 80.0628C48.099 80.0719 48.3605 80.3598 48.3283 81.0154C48.2867 81.9168 48.2308 82.8183 48.1785 83.7233C48.1359 84.4395 48.0898 85.1522 48.0468 85.8042L45.1327 85.8259L45.1398 85.8259ZM36.6043 11.2643C37.1075 10.7428 37.9268 10.7194 38.4531 11.2204C38.9651 11.7072 38.9874 12.5728 38.4984 13.0799C38.0023 13.5942 37.1651 13.607 36.6495 13.1096C36.116 12.5944 36.0976 11.7964 36.6079 11.2678L36.6043 11.2643ZM38.5033 17.4441C39.0154 17.9523 39.009 18.7824 38.495 19.286C37.9811 19.7968 37.1581 19.7882 36.653 19.2658C36.1444 18.7469 36.1473 17.9204 36.6577 17.4203C37.1716 16.9167 37.9875 16.9253 38.5033 17.4441ZM55.9707 17.4105C56.4793 17.9293 56.4729 18.7523 55.9554 19.2524C55.4414 19.7489 54.6005 19.7368 54.1026 19.2215C53.6011 18.6955 53.6111 17.8689 54.1251 17.3724C54.6497 16.8652 55.4443 16.881 55.9672 17.414L55.9707 17.4105ZM54.0752 11.2128C54.582 10.6949 55.4156 10.6785 55.9205 11.1796C56.4362 11.6913 56.4512 12.5142 55.9515 13.0321C55.4484 13.5535 54.6397 13.5591 54.1097 13.0474C53.5726 12.5287 53.5578 11.7414 54.0752 11.2128V11.2128Z" fill="#F4D4AD"/>
<path d="M48.8386 59.9308C48.7864 60.1696 48.709 60.3551 48.7064 60.5439C48.722 64.8974 48.7481 69.2473 48.7672 73.5972C48.7692 73.9891 48.8813 74.3059 49.3231 74.3047C49.7613 74.3001 49.8736 73.9791 49.868 73.5908C49.8418 69.2409 49.8299 64.891 49.7824 60.5412C49.7812 60.3203 49.5875 60.0572 49.4121 59.8973C49.3154 59.8156 49.0559 59.9125 48.8351 59.9344L48.8386 59.9308Z" fill="#F4D4AD"/>
<path d="M46.0381 59.9377C45.9861 60.205 45.9158 60.3904 45.9204 60.5792C45.9358 64.9113 45.9583 69.2434 45.9844 73.579C45.9863 73.9495 46.0736 74.2984 46.5226 74.3116C47.0072 74.3246 47.1015 73.9645 47.0994 73.5655C47.0769 69.2334 47.0579 64.8978 47.014 60.5658C47.0093 60.3413 46.844 60.0639 46.6651 59.9147C46.5541 59.8188 46.2803 59.9228 46.0488 59.9341L46.0381 59.9377Z" fill="#F4D4AD"/>
<path d="M43.3051 74.2381C43.551 74.2624 43.7652 74.3402 43.918 74.2793C44.0709 74.2183 44.2267 74.0326 44.2722 73.8651C44.3387 73.6476 44.3018 73.3983 44.297 73.1668C44.2793 69.0662 44.258 64.9693 44.2295 60.8652C44.2273 60.452 44.3422 59.928 43.697 59.8619C43.2835 59.8202 43.1283 60.1199 43.1323 60.8823C43.1541 65.0718 43.1759 69.2614 43.2048 73.451C43.206 73.6932 43.2643 73.9353 43.305 74.2309L43.3051 74.2381Z" fill="#F4D4AD"/>
<path d="M51.8467 77.3051L51.8089 76.2115C51.6308 76.2048 51.4526 76.191 51.2816 76.1915C48.0467 76.1997 44.8154 76.2043 41.5806 76.2125C41.4879 76.2128 41.3989 76.2094 41.3098 76.2132C40.9537 76.2355 40.7088 76.4107 40.7249 76.7811C40.7411 77.1445 40.9878 77.3113 41.3512 77.3104C42.851 77.303 44.3509 77.3028 45.8472 77.299C47.8173 77.2975 49.7839 77.2997 51.8431 77.3016L51.8467 77.3051Z" fill="#F4D4AD"/>
</svg>
